<?xml version="1.0" encoding="utf-8"?>
<!-- Generator: Adobe Illustrator 19.2.1, SVG Export Plug-In . SVG Version: 6.00 Build 0)  -->
<svg version="1.1" id="Layer_1" xmlns="http://www.w3.org/2000/svg" xmlns:xlink="http://www.w3.org/1999/xlink" x="0px" y="0px"
	 viewBox="0 0 32 32" enable-background="new 0 0 32 32" xml:space="preserve">
<g transform="translate(480 336)">
	<path d="M-464-336c-8.8,0-16,7.2-16,16s7.2,16,16,16s16-7.2,16-16S-455.2-336-464-336z M-464-308c-6.6,0-12-5.4-12-12s5.4-12,12-12
		c6.6,0,12,5.4,12,12S-457.4-308-464-308z M-454-320c0,1.1-0.9,2-2,2h-8c-1.1,0-2-0.9-2-2v-8c0-1.1,0.9-2,2-2s2,0.9,2,2v6h6
		C-454.9-322-454-321.1-454-320z"/>
</g>
</svg>
