<?xml version="1.0" encoding="utf-8"?>
<!-- Generator: Adobe Illustrator 19.2.1, SVG Export Plug-In . SVG Version: 6.00 Build 0)  -->
<svg version="1.1" id="Layer_1" xmlns="http://www.w3.org/2000/svg" xmlns:xlink="http://www.w3.org/1999/xlink" x="0px" y="0px"
	 viewBox="0 0 95 98.2" style="enable-background:new 0 0 95 98.2;" xml:space="preserve">
<style type="text/css">
	.st0{fill:#232323;}
</style>
<g>
	<path class="st0" d="M1.7,66.7L1.7,66.7C1.7,66.8,1.7,66.8,1.7,66.7c0,0.1,0,0.2,0,0.3c0,0,0,0,0,0l3.9,25.5
		c0.5,3.1,3.4,5.2,6.5,4.7c3.1-0.5,5.2-3.4,4.7-6.5l-0.6-4c0.7,0.6,1.4,1.2,2.2,1.7c10.1,7.4,23.1,11,36.5,8.9
		c13.4-2.1,24.7-9.4,32.1-19.5c3.7-5,6.4-10.7,7.9-16.8L79.5,57c-1,4.2-2.9,8.1-5.4,11.6c-5,6.8-12.6,11.7-21.6,13.1
		c-9,1.4-17.7-1-24.5-6c-0.8-0.6-1.6-1.3-2.4-2l4.5,0.4c2.9,0.3,5.4-2,5.7-5.1c0.3-3.1-1.8-5.9-4.7-6.2L7.5,60.6
		c-2.6-0.2-4.9,1.6-5.6,4.2c0,0.2-0.1,0.4-0.1,0.6c0,0.1-0.1,0.3-0.1,0.4c0,0,0,0.1,0,0.1c0,0.2,0,0.4,0,0.5
		C1.7,66.5,1.7,66.6,1.7,66.7z"/>
	<path class="st0" d="M93.3,31.4L93.3,31.4C93.3,31.4,93.3,31.4,93.3,31.4c0-0.1,0-0.2,0-0.3c0,0,0,0,0,0L89.3,5.5
		c-0.5-3.1-3.4-5.2-6.5-4.7c-3.1,0.5-5.2,3.4-4.7,6.5l0.6,4c-0.7-0.6-1.4-1.2-2.2-1.7C66.4,2.1,53.4-1.5,40,0.6
		C26.7,2.6,15.3,9.9,7.9,20.1c-3.7,5-6.4,10.7-7.9,16.8l15.5,4.3c1-4.2,2.9-8.1,5.4-11.6c5-6.8,12.6-11.7,21.6-13.1
		c9-1.4,17.7,1,24.5,6c0.8,0.6,1.6,1.3,2.4,2L64.9,24c-2.9-0.3-5.4,2-5.7,5.1c-0.3,3.1,1.8,5.9,4.7,6.2l23.7,2.3
		c2.6,0.2,4.9-1.6,5.6-4.2c0.1-0.2,0.1-0.4,0.1-0.6c0-0.1,0.1-0.3,0.1-0.4c0,0,0-0.1,0-0.1c0-0.2,0-0.4,0-0.5
		C93.3,31.7,93.3,31.5,93.3,31.4z"/>
</g>
</svg>
