<?xml version="1.0" encoding="UTF-8"?><!DOCTYPE svg PUBLIC "-//W3C//DTD SVG 1.1//EN" "http://www.w3.org/Graphics/SVG/1.1/DTD/svg11.dtd"><svg xmlns="http://www.w3.org/2000/svg"><defs>
        <style>
            .cls-1{fill:#4b5e71;stroke:#4b5e71;stroke-miterlimit:10}
        </style>
    </defs><symbol id="icon-check" viewBox="0 0 512.1 351.6">
    <path d="M170.2 351.6c-2.6 0-5-1-6.8-2.8L2.8 188.4c-3.8-3.8-3.8-9.9 0-13.6 3.8-3.8 9.9-3.8 13.6 0l153.7 153.7L495.6 2.9c3.8-3.8 9.9-3.8 13.6 0 3.8 3.8 3.8 9.9 0 13.6L176.9 348.9c-1.7 1.7-4.2 2.7-6.7 2.7z"/>
</symbol><symbol id="icon-clock" viewBox="0 0 32 32">
    <path d="M16 0C7.2 0 0 7.2 0 16s7.2 16 16 16 16-7.2 16-16S24.8 0 16 0zm0 28C9.4 28 4 22.6 4 16S9.4 4 16 4s12 5.4 12 12-5.4 12-12 12zm10-12c0 1.1-.9 2-2 2h-8c-1.1 0-2-.9-2-2V8c0-1.1.9-2 2-2s2 .9 2 2v6h6c1.1 0 2 .9 2 2z"/>
</symbol><symbol id="icon-close" viewBox="0 0 461.03 461.03">
    
    <title>
        close
    </title>
    <path class="cls-1" transform="rotate(45 863.49 -392.67)" d="M556.57 470.57h600v50h-600z"/>
    <path class="cls-1" transform="rotate(-45 223.593 1118.755)" d="M556.57 470.57h600v50h-600z"/>
</symbol><symbol id="icon-facebook" viewBox="0 0 9 16">
    <path d="M6 6h3v3H6v7H3V9H0V6h3V4.7c0-1.2.4-2.7 1.1-3.5C4.9.4 5.8 0 6.9 0H9v3H6.9c-.5 0-.9.4-.9.9V6z"/>
</symbol><symbol id="icon-heart" viewBox="0 0 20 18">
    <path d="M14.4 0C12.6 0 11 .9 10 2.3 9 .9 7.4 0 5.6 0 2.5 0 0 2.5 0 5.6 0 10 10 18 10 18s10-8 10-12.4C20 2.5 17.5 0 14.4 0z"/>
</symbol><symbol id="icon-inbox" viewBox="0 0 22 18">
    <path stroke-width="2" stroke-linecap="round" stroke-linejoin="round" d="M21 9h-6l-2 3H9L7 9H1"/>
    <path stroke-width="2" stroke-linecap="round" stroke-linejoin="round" d="M4.4 2.1L1 9v6c0 1.1.9 2 2 2h16c1.1 0 2-.9 2-2V9l-3.5-6.9c-.3-.7-1-1.1-1.8-1.1H6.2c-.7 0-1.4.4-1.8 1.1z"/>
</symbol><symbol id="icon-instagram" viewBox="0 0 258.8 258.8">
    <path d="M252 44.6c-3.3-8.5-7.7-15.7-14.9-22.9-7.2-7.2-14.4-11.6-22.9-14.9-8.2-3.2-17.7-5.4-31.4-6C169 .2 164.6 0 129.4 0S89.8.1 76 .8c-13.8.6-23.2 2.8-31.4 6-8.5 3.3-15.7 7.7-22.9 14.9S10.1 36.1 6.8 44.6C3.6 52.8 1.4 62.3.8 76 .2 89.8 0 94.2 0 129.4s.1 39.6.8 53.4c.6 13.8 2.8 23.2 6 31.4 3.3 8.5 7.7 15.7 14.9 22.9 7.2 7.2 14.4 11.6 22.9 14.9 8.2 3.2 17.7 5.4 31.4 6 13.8.6 18.2.8 53.4.8s39.6-.1 53.4-.8c13.8-.6 23.2-2.8 31.4-6 8.5-3.3 15.7-7.7 22.9-14.9 7.2-7.2 11.6-14.4 14.9-22.9 3.2-8.2 5.4-17.7 6-31.4.6-13.8.8-18.2.8-53.4s-.1-39.6-.8-53.4c-.6-13.8-2.8-23.2-6-31.4zm-17.3 137.1c-.6 12.6-2.7 19.5-4.5 24-2.3 6-5.2 10.4-9.7 14.9s-8.8 7.3-14.9 9.7c-4.6 1.8-11.4 3.9-24 4.5-13.7.6-17.7.8-52.3.8s-38.7-.1-52.3-.8c-12.6-.6-19.5-2.7-24-4.5-6-2.3-10.4-5.2-14.9-9.7s-7.3-8.8-9.7-14.9c-1.8-4.6-3.9-11.4-4.5-24-.6-13.7-.8-17.8-.8-52.3s.1-38.7.8-52.3c.6-12.6 2.7-19.5 4.5-24 2.3-6 5.2-10.4 9.7-14.9s8.8-7.3 14.9-9.7c4.6-1.8 11.4-3.9 24-4.5 13.7-.6 17.8-.8 52.3-.8s38.7.1 52.3.8c12.6.6 19.5 2.7 24 4.5 6 2.3 10.4 5.2 14.9 9.7s7.3 8.8 9.7 14.9c1.8 4.6 3.9 11.4 4.5 24 .6 13.7.8 17.8.8 52.3s-.2 38.7-.8 52.3z"/>
    <path d="M129.3 62.9c-36.7 0-66.5 29.8-66.5 66.5s29.8 66.5 66.5 66.5 66.5-29.8 66.5-66.5-29.8-66.5-66.5-66.5zm0 109.7c-23.8 0-43.2-19.3-43.2-43.2 0-23.8 19.3-43.2 43.2-43.2s43.2 19.3 43.2 43.2c0 23.8-19.4 43.2-43.2 43.2z"/>
    <circle cx="198.4" cy="60.3" r="15.5"/>
</symbol><symbol id="icon-play" viewBox="0 0 16 18">
    <path d="M0 15.9V2.1C0 .5 1.7-.5 3 .3l12 6.9c1.4.8 1.4 2.9 0 3.7L3 17.8c-1.3.7-3-.3-3-1.9z"/>
</symbol><symbol id="icon-reload" viewBox="0 0 95 98.2">
    <style>
        .st0{fill:#232323}
    </style>
    <path class="st0" d="M1.7 66.7c0 .1 0 .1 0 0v.3l3.9 25.5c.5 3.1 3.4 5.2 6.5 4.7s5.2-3.4 4.7-6.5l-.6-4c.7.6 1.4 1.2 2.2 1.7 10.1 7.4 23.1 11 36.5 8.9 13.4-2.1 24.7-9.4 32.1-19.5 3.7-5 6.4-10.7 7.9-16.8l-15.4-4c-1 4.2-2.9 8.1-5.4 11.6-5 6.8-12.6 11.7-21.6 13.1-9 1.4-17.7-1-24.5-6-.8-.6-1.6-1.3-2.4-2l4.5.4c2.9.3 5.4-2 5.7-5.1.3-3.1-1.8-5.9-4.7-6.2L7.5 60.6c-2.6-.2-4.9 1.6-5.6 4.2 0 .2-.1.4-.1.6 0 .1-.1.3-.1.4V66.7z"/>
    <path class="st0" d="M93.3 31.4v-.3l-4-25.6C88.8 2.4 85.9.3 82.8.8s-5.2 3.4-4.7 6.5l.6 4c-.7-.6-1.4-1.2-2.2-1.7C66.4 2.1 53.4-1.5 40 .6c-13.3 2-24.7 9.3-32.1 19.5-3.7 5-6.4 10.7-7.9 16.8l15.5 4.3c1-4.2 2.9-8.1 5.4-11.6 5-6.8 12.6-11.7 21.6-13.1 9-1.4 17.7 1 24.5 6 .8.6 1.6 1.3 2.4 2l-4.5-.5c-2.9-.3-5.4 2-5.7 5.1-.3 3.1 1.8 5.9 4.7 6.2l23.7 2.3c2.6.2 4.9-1.6 5.6-4.2.1-.2.1-.4.1-.6 0-.1.1-.3.1-.4v-.1-.5c-.1-.1-.1-.3-.1-.4z"/>
</symbol><symbol id="icon-twitter" viewBox="0 0 49.3 40">
    <path d="M49.3 4.7c-1.8.8-3.8 1.3-5.8 1.6C45.6 5 47.2 3.1 47.9.7c-2 1.2-4.1 2-6.4 2.5C39.6 1.2 37 0 34.1 0 28.5 0 24 4.5 24 10.1c0 .8.1 1.6.3 2.3C15.9 12 8.4 8 3.4 1.8c-.8 1.5-1.3 3.3-1.3 5.1 0 3.5 1.8 6.6 4.5 8.4-1.7-.1-3.2-.5-4.6-1.3v.1c0 4.9 3.5 9 8.1 9.9-.8.2-1.7.4-2.7.4-.7 0-1.3-.1-1.9-.2 1.3 4 5 6.9 9.4 7-3.5 2.7-7.8 4.3-12.6 4.3-.8 0-1.6 0-2.4-.1 4.6 3 9.9 4.6 15.6 4.6 18.6 0 28.8-15.4 28.8-28.8V9.9c1.9-1.4 3.6-3.1 5-5.2z"/>
</symbol></svg>